<svg width="85" height="41" viewBox="0 0 85 41" fill="none" xmlns="http://www.w3.org/2000/svg">
<path fill-rule="evenodd" clip-rule="evenodd" d="M13.9782 0.732796L7.95019 4.16618V11.0331L13.9782 14.4665L20.006 11.0331V4.16618L13.9782 0.732796ZM20.6493 3.79987L13.9782 0L7.30705 3.79987V11.3996L13.9782 15.1995L20.6493 11.3996V3.79987ZM14.0233 25.7982L7.99532 29.2316V36.0985L14.0233 39.5319L20.0511 36.0985V29.2316L14.0233 25.7982ZM20.6945 28.8653L14.0233 25.0654L7.35218 28.8653V36.465L14.0233 40.2647L20.6945 36.465V28.8653ZM0.643317 16.6992L6.67113 13.2659L12.6991 16.6992V23.5662L6.67113 26.9995L0.643317 23.5662V16.6992ZM6.67113 12.5331L13.3425 16.3329V23.9327L6.67113 27.7323L0 23.9327V16.3329L6.67113 12.5331ZM21.3753 13.2659L15.3475 16.6992V23.5662L21.3753 26.9995L27.4033 23.5662V16.6992L21.3753 13.2659ZM28.0466 16.3329L21.3753 12.5331L14.7042 16.3329V23.9327L21.3753 27.7323L28.0466 23.9327V16.3329ZM30.0968 16.6992L36.1247 13.2659L42.1526 16.6992V23.5662L36.1247 26.9995L30.0968 23.5662V16.6992ZM36.1247 12.5331L42.796 16.3329V23.9327L36.1247 27.7323L29.4535 23.9327V16.3329L36.1247 12.5331ZM28.8356 0.732796L27.0438 1.75337L22.8076 4.16618V11.0331L28.8356 14.4665L34.8635 11.0331V4.16618L28.8356 0.732796ZM35.5068 3.79987L28.8356 0L26.7221 1.20382L22.1643 3.79987V11.3996L28.8356 15.1995L35.5068 11.3996V3.79987ZM22.6995 29.2282L28.7275 25.7947L34.7553 29.2282V36.095L28.7275 39.5285L22.6995 36.095V29.2282ZM28.7275 25.0619L35.3987 28.8617V36.4614L28.7275 40.2613L22.0562 36.4614V28.8617L28.7275 25.0619Z" fill="url(#paint0_radial_144_202)"/>
<path d="M51.9245 18.3273V20.6823C51.9245 20.9403 51.9917 21.1384 52.1262 21.2765C52.2606 21.4109 52.4496 21.4782 52.6931 21.4782C52.9402 21.4782 53.131 21.4109 53.2655 21.2765C53.4 21.1384 53.4672 20.9403 53.4672 20.6823V18.3273H54.2359V20.6768C54.2359 21.0003 54.165 21.2747 54.0232 21.5C53.8851 21.7217 53.698 21.8888 53.4618 22.0015C53.2292 22.1142 52.9693 22.1705 52.6822 22.1705C52.3987 22.1705 52.1407 22.1142 51.9081 22.0015C51.6791 21.8888 51.4974 21.7217 51.363 21.5C51.2285 21.2747 51.1613 21.0003 51.1613 20.6768V18.3273H51.9245ZM56.6468 19.0687C57.0066 19.0687 57.2974 19.1831 57.519 19.4121C57.7407 19.6374 57.8516 19.9536 57.8516 20.3606V22.1323H57.0884V20.4642C57.0884 20.2244 57.0284 20.0408 56.9085 19.9136C56.7886 19.7828 56.625 19.7174 56.4179 19.7174C56.2071 19.7174 56.0399 19.7828 55.9163 19.9136C55.7964 20.0408 55.7364 20.2244 55.7364 20.4642V22.1323H54.9732V19.1123H55.7364V19.4884C55.8382 19.3576 55.9672 19.2558 56.1235 19.1831C56.2834 19.1068 56.4578 19.0687 56.6468 19.0687ZM62.764 19.1123L61.8809 22.1323H61.0577L60.5071 20.0226L59.9565 22.1323H59.1279L58.2393 19.1123H59.0134L59.5477 21.4128L60.1255 19.1123H60.9323L61.4993 21.4073L62.0335 19.1123H62.764ZM63.564 18.7525C63.4295 18.7525 63.3169 18.7107 63.226 18.6271C63.1388 18.5399 63.0952 18.4327 63.0952 18.3055C63.0952 18.1783 63.1388 18.0729 63.226 17.9893C63.3169 17.9021 63.4295 17.8584 63.564 17.8584C63.6985 17.8584 63.8093 17.9021 63.8965 17.9893C63.9874 18.0729 64.0328 18.1783 64.0328 18.3055C64.0328 18.4327 63.9874 18.5399 63.8965 18.6271C63.8093 18.7107 63.6985 18.7525 63.564 18.7525ZM63.9401 19.1123V22.1323H63.177V19.1123H63.9401ZM66.3678 19.0687C66.7276 19.0687 67.0183 19.1831 67.24 19.4121C67.4617 19.6374 67.5725 19.9536 67.5725 20.3606V22.1323H66.8093V20.4642C66.8093 20.2244 66.7494 20.0408 66.6294 19.9136C66.5095 19.7828 66.346 19.7174 66.1388 19.7174C65.928 19.7174 65.7608 19.7828 65.6373 19.9136C65.5173 20.0408 65.4574 20.2244 65.4574 20.4642V22.1323H64.6942V19.1123H65.4574V19.4884C65.5591 19.3576 65.6882 19.2558 65.8444 19.1831C66.0043 19.1068 66.1788 19.0687 66.3678 19.0687ZM68.102 20.6114C68.102 20.3061 68.162 20.0354 68.2819 19.7991C68.4055 19.5629 68.5727 19.3812 68.7835 19.254C68.9942 19.1268 69.2287 19.0632 69.4867 19.0632C69.6829 19.0632 69.8701 19.1068 70.0482 19.194C70.2263 19.2776 70.368 19.3903 70.4734 19.532V18.0983H71.2475V22.1323H70.4734V21.6853C70.3789 21.8343 70.2462 21.9543 70.0754 22.0451C69.9046 22.136 69.7066 22.1814 69.4812 22.1814C69.2268 22.1814 68.9942 22.116 68.7835 21.9852C68.5727 21.8543 68.4055 21.6708 68.2819 21.4346C68.162 21.1947 68.102 20.9203 68.102 20.6114ZM70.4788 20.6223C70.4788 20.437 70.4425 20.2789 70.3698 20.148C70.2971 20.0136 70.199 19.9118 70.0754 19.8428C69.9519 19.7701 69.8192 19.7337 69.6775 19.7337C69.5357 19.7337 69.4049 19.7683 69.285 19.8373C69.1651 19.9064 69.0669 20.0081 68.9906 20.1426C68.9179 20.2734 68.8816 20.4297 68.8816 20.6114C68.8816 20.7931 68.9179 20.953 68.9906 21.0911C69.0669 21.2256 69.1651 21.3292 69.285 21.4019C69.4086 21.4745 69.5394 21.5109 69.6775 21.5109C69.8192 21.5109 69.9519 21.4764 70.0754 21.4073C70.199 21.3346 70.2971 21.2329 70.3698 21.102C70.4425 20.9676 70.4788 20.8077 70.4788 20.6223ZM76.4482 18.3273V22.1323H75.685V20.5133H74.055V22.1323H73.2918V18.3273H74.055V19.8918H75.685V18.3273H76.4482ZM77.9517 18.3273V20.6823C77.9517 20.9403 78.0189 21.1384 78.1534 21.2765C78.2879 21.4109 78.4768 21.4782 78.7203 21.4782C78.9675 21.4782 79.1583 21.4109 79.2927 21.2765C79.4272 21.1384 79.4944 20.9403 79.4944 20.6823V18.3273H80.2631V20.6768C80.2631 21.0003 80.1922 21.2747 80.0505 21.5C79.9124 21.7217 79.7252 21.8888 79.489 22.0015C79.2564 22.1142 78.9965 22.1705 78.7094 22.1705C78.426 22.1705 78.1679 22.1142 77.9353 22.0015C77.7064 21.8888 77.5247 21.7217 77.3902 21.5C77.2557 21.2747 77.1885 21.0003 77.1885 20.6768V18.3273H77.9517ZM83.1592 20.1807C83.3736 20.2207 83.5499 20.3279 83.688 20.5024C83.8261 20.6768 83.8952 20.8767 83.8952 21.102C83.8952 21.3055 83.8443 21.4854 83.7425 21.6417C83.6444 21.7944 83.5008 21.9143 83.3119 22.0015C83.1229 22.0887 82.8994 22.1323 82.6413 22.1323H81.0005V18.3273H82.5705C82.8285 18.3273 83.0502 18.3691 83.2355 18.4526C83.4245 18.5362 83.5663 18.6525 83.6607 18.8015C83.7589 18.9505 83.8079 19.1195 83.8079 19.3085C83.8079 19.5302 83.748 19.7156 83.628 19.8646C83.5117 20.0136 83.3555 20.119 83.1592 20.1807ZM81.7637 19.8973H82.4614C82.6431 19.8973 82.7831 19.8573 82.8812 19.7773C82.9793 19.6937 83.0284 19.5756 83.0284 19.423C83.0284 19.2704 82.9793 19.1522 82.8812 19.0687C82.7831 18.9851 82.6431 18.9433 82.4614 18.9433H81.7637V19.8973ZM82.5323 21.5109C82.7177 21.5109 82.8612 21.4673 82.963 21.38C83.0684 21.2928 83.1211 21.1693 83.1211 21.0094C83.1211 20.8458 83.0665 20.7186 82.9575 20.6278C82.8485 20.5333 82.7013 20.486 82.5159 20.486H81.7637V21.5109H82.5323Z" fill="#8A2BE2"/>
<defs>
<radialGradient id="paint0_radial_144_202" cx="0" cy="0" r="1" gradientUnits="userSpaceOnUse" gradientTransform="translate(30.4051 4.05345) rotate(117.563) scale(40.8471 34.1013)">
<stop offset="0.141956" stop-color="#8A2BE2" stop-opacity="0.86"/>
<stop offset="1" stop-color="#CEBCE9" stop-opacity="0.17"/>
</radialGradient>
</defs>
</svg>
