<svg width="24" height="25" viewBox="0 0 24 25" fill="none" xmlns="http://www.w3.org/2000/svg">
<path d="M3.42857 0.0585938C1.5375 0.0585938 0 1.59609 0 3.48717V20.63C0 22.5211 1.5375 24.0586 3.42857 24.0586H20.5714C22.4625 24.0586 24 22.5211 24 20.63V3.48717C24 1.59609 22.4625 0.0585938 20.5714 0.0585938H3.42857ZM19.3446 4.55859L13.7839 10.9122L20.325 19.5586H15.2036L11.1964 14.314L6.60536 19.5586H4.06071L10.0071 12.7604L3.73393 4.55859H8.98393L12.6107 9.35324L16.8 4.55859H19.3446ZM17.3196 18.0372L8.21786 5.99966H6.70179L15.9054 18.0372H17.3143H17.3196Z" fill="#8A2BE2"/>
</svg>
