<svg width="24" height="25" viewBox="0 0 24 25" fill="none" xmlns="http://www.w3.org/2000/svg">
<path d="M21.3333 0.0585938C22.0406 0.0585938 22.7189 0.339545 23.219 0.839642C23.719 1.33974 24 2.01802 24 2.72526V21.3919C24 22.0992 23.719 22.7774 23.219 23.2775C22.7189 23.7776 22.0406 24.0586 21.3333 24.0586H2.66667C1.95942 24.0586 1.28115 23.7776 0.781048 23.2775C0.280951 22.7774 0 22.0992 0 21.3919V2.72526C0 2.01802 0.280951 1.33974 0.781048 0.839642C1.28115 0.339545 1.95942 0.0585938 2.66667 0.0585938H21.3333ZM20.6667 20.7253V13.6586C20.6667 12.5058 20.2087 11.4002 19.3936 10.585C18.5784 9.76988 17.4728 9.31193 16.32 9.31193C15.1867 9.31193 13.8667 10.0053 13.2267 11.0453V9.56526H9.50667V20.7253H13.2267V14.1519C13.2267 13.1253 14.0533 12.2853 15.08 12.2853C15.5751 12.2853 16.0499 12.4819 16.3999 12.832C16.75 13.1821 16.9467 13.6569 16.9467 14.1519V20.7253H20.6667ZM5.17333 7.47193C5.76742 7.47193 6.33717 7.23593 6.75725 6.81585C7.17733 6.39577 7.41333 5.82601 7.41333 5.23193C7.41333 3.99193 6.41333 2.97859 5.17333 2.97859C4.57571 2.97859 4.00257 3.216 3.57999 3.63858C3.1574 4.06116 2.92 4.63431 2.92 5.23193C2.92 6.47193 3.93333 7.47193 5.17333 7.47193ZM7.02667 20.7253V9.56526H3.33333V20.7253H7.02667Z" fill="#8A2BE2"/>
</svg>
