<svg width="24" height="25" viewBox="0 0 24 25" fill="none" xmlns="http://www.w3.org/2000/svg">
<path d="M17.9952 12.8034C16.7041 12.8046 15.448 13.2222 14.4133 13.9941L10.7971 10.3792C11.5784 9.35243 12 8.09719 11.9968 6.80715C12.0002 5.45619 11.5471 4.14369 10.711 3.08233C9.87483 2.02097 8.70467 1.27296 7.39011 0.959524C6.07555 0.646086 4.69362 0.785586 3.46828 1.35542C2.24295 1.92525 1.24601 2.89202 0.63904 4.09905C0.0320671 5.30609 -0.149372 6.68265 0.124126 8.00565C0.397625 9.32865 1.11003 10.5206 2.1459 11.3882C3.18176 12.2559 4.48038 12.7484 5.8313 12.7861C7.18221 12.8237 8.50626 12.4042 9.58885 11.5956L13.1965 15.2105C12.3877 16.2924 11.9681 17.6155 12.0055 18.9656C12.0429 20.3157 12.5351 21.6136 13.4025 22.6491C14.2699 23.6846 15.4615 24.3971 16.7845 24.6712C18.1075 24.9452 19.4842 24.7647 20.6918 24.159C21.8994 23.5533 22.867 22.5578 23.438 21.3337C24.009 20.1097 24.1499 18.7288 23.8378 17.4147C23.5258 16.1006 22.779 14.9304 21.7186 14.0934C20.6582 13.2565 19.3463 12.802 17.9952 12.8034ZM1.71382 6.80715C1.71382 5.96004 1.9651 5.13196 2.4359 4.42762C2.90669 3.72328 3.57585 3.17431 4.35875 2.85014C5.14165 2.52596 6.00314 2.44115 6.83426 2.60641C7.66539 2.77167 8.42883 3.17959 9.02803 3.77858C9.62724 4.37758 10.0353 5.14074 10.2006 5.97157C10.366 6.80239 10.2811 7.66357 9.95681 8.44619C9.63252 9.22882 9.08336 9.89773 8.37877 10.3684C7.67417 10.839 6.84579 11.0902 5.99839 11.0902C4.86205 11.0902 3.77225 10.6389 2.96874 9.83571C2.16523 9.03248 1.71382 7.94308 1.71382 6.80715Z" fill="#8A2BE2"/>
</svg>
