<svg width="7" height="7" viewBox="0 0 7 7" fill="none" xmlns="http://www.w3.org/2000/svg">
<path d="M1.85876 1.29798C1.85878 1.1654 1.91145 1.03825 2.0052 0.944503C2.09895 0.850754 2.2261 0.798077 2.35868 0.798057L5.54066 0.798057C5.67324 0.798077 5.80039 0.850754 5.89414 0.944503C5.98789 1.03825 6.04057 1.1654 6.04059 1.29798V4.47996C6.03831 4.61105 5.98464 4.73599 5.89113 4.82788C5.79762 4.91978 5.67177 4.97127 5.54066 4.97127C5.40956 4.97127 5.2837 4.91978 5.19019 4.82788C5.09669 4.73599 5.04302 4.61105 5.04074 4.47996L5.01033 2.53542L1.65157 5.89418C1.55781 5.98794 1.43063 6.04062 1.29802 6.04062C1.16541 6.04062 1.03824 5.98794 0.944468 5.89418C0.8507 5.80041 0.798022 5.67323 0.798022 5.54062C0.798022 5.40801 0.8507 5.28084 0.944468 5.18707L4.30323 1.82831L2.35868 1.79791C2.2261 1.79789 2.09895 1.74521 2.0052 1.65146C1.91145 1.55771 1.85878 1.43056 1.85876 1.29798Z" fill="#8A2BE2"/>
</svg>
